<svg width="255" height="50" viewBox="0 0 255 50" fill="none"
    xmlns="http://www.w3.org/2000/svg">
    <path d="M58.8 8.21C59.64 8.05 60.56 7.93 61.56 7.85C62.58 7.75 63.59 7.7 64.59 7.7C65.63 7.7 66.67 7.79 67.71 7.97C68.77 8.13 69.72 8.47 70.56 8.99C71.4 9.49 72.08 10.2 72.6 11.12C73.14 12.02 73.41 13.2 73.41 14.66C73.41 15.98 73.18 17.1 72.72 18.02C72.26 18.92 71.65 19.66 70.89 20.24C70.13 20.82 69.26 21.24 68.28 21.5C67.32 21.76 66.32 21.89 65.28 21.89C65.18 21.89 65.02 21.89 64.8 21.89C64.58 21.89 64.35 21.89 64.11 21.89C63.87 21.87 63.63 21.85 63.39 21.83C63.17 21.81 63.01 21.79 62.91 21.77V29H58.8V8.21ZM64.92 11.24C64.52 11.24 64.14 11.26 63.78 11.3C63.42 11.32 63.13 11.35 62.91 11.39V18.2C62.99 18.22 63.11 18.24 63.27 18.26C63.43 18.28 63.6 18.3 63.78 18.32C63.96 18.32 64.13 18.32 64.29 18.32C64.47 18.32 64.6 18.32 64.68 18.32C65.22 18.32 65.75 18.27 66.27 18.17C66.81 18.07 67.29 17.89 67.71 17.63C68.13 17.35 68.46 16.97 68.7 16.49C68.96 16.01 69.09 15.38 69.09 14.6C69.09 13.94 68.97 13.4 68.73 12.98C68.49 12.54 68.17 12.19 67.77 11.93C67.39 11.67 66.95 11.49 66.45 11.39C65.95 11.29 65.44 11.24 64.92 11.24ZM83.2791 17.66C82.6591 17.44 82.0991 17.33 81.5991 17.33C80.8991 17.33 80.3091 17.52 79.8291 17.9C79.3691 18.26 79.0591 18.73 78.8991 19.31V29H74.9991V14H78.0291L78.4791 15.98H78.5991C78.9391 15.24 79.3991 14.67 79.9791 14.27C80.5591 13.87 81.2391 13.67 82.0191 13.67C82.5391 13.67 83.1291 13.78 83.7891 14L83.2791 17.66ZM84.7966 21.5C84.7966 18.96 85.4166 17.01 86.6566 15.65C87.8966 14.27 89.6366 13.58 91.8766 13.58C93.0766 13.58 94.1166 13.77 94.9966 14.15C95.8766 14.53 96.6066 15.07 97.1866 15.77C97.7666 16.45 98.1966 17.28 98.4766 18.26C98.7766 19.24 98.9266 20.32 98.9266 21.5C98.9266 24.04 98.3066 26 97.0666 27.38C95.8466 28.74 94.1166 29.42 91.8766 29.42C90.6766 29.42 89.6366 29.23 88.7566 28.85C87.8766 28.47 87.1366 27.94 86.5366 27.26C85.9566 26.56 85.5166 25.72 85.2166 24.74C84.9366 23.76 84.7966 22.68 84.7966 21.5ZM88.8166 21.5C88.8166 22.16 88.8766 22.77 88.9966 23.33C89.1166 23.89 89.2966 24.38 89.5366 24.8C89.7766 25.22 90.0866 25.55 90.4666 25.79C90.8666 26.01 91.3366 26.12 91.8766 26.12C92.8966 26.12 93.6566 25.75 94.1566 25.01C94.6566 24.27 94.9066 23.1 94.9066 21.5C94.9066 20.12 94.6766 19.01 94.2166 18.17C93.7566 17.31 92.9766 16.88 91.8766 16.88C90.9166 16.88 90.1666 17.24 89.6266 17.96C89.0866 18.68 88.8166 19.86 88.8166 21.5ZM114.38 23.72C114.38 24.56 114.39 25.4 114.41 26.24C114.43 27.08 114.52 28.01 114.68 29.03H111.89L111.35 27.08H111.23C110.83 27.78 110.25 28.35 109.49 28.79C108.75 29.21 107.87 29.42 106.85 29.42C104.97 29.42 103.51 28.8 102.47 27.56C101.43 26.32 100.91 24.38 100.91 21.74C100.91 19.18 101.49 17.19 102.65 15.77C103.81 14.35 105.51 13.64 107.75 13.64C108.37 13.64 108.88 13.68 109.28 13.76C109.68 13.82 110.08 13.93 110.48 14.09V8H114.38V23.72ZM107.75 26.12C108.51 26.12 109.11 25.94 109.55 25.58C109.99 25.2 110.3 24.66 110.48 23.96V17.6C110.2 17.38 109.89 17.22 109.55 17.12C109.21 17 108.77 16.94 108.23 16.94C107.13 16.94 106.3 17.31 105.74 18.05C105.2 18.79 104.93 20.06 104.93 21.86C104.93 23.14 105.15 24.17 105.59 24.95C106.05 25.73 106.77 26.12 107.75 26.12ZM121.552 14V22.52C121.552 23.74 121.692 24.62 121.972 25.16C122.272 25.7 122.842 25.97 123.682 25.97C124.422 25.97 125.032 25.75 125.512 25.31C126.012 24.87 126.382 24.33 126.622 23.69V14H130.522V24.44C130.522 25.26 130.562 26.07 130.642 26.87C130.722 27.65 130.842 28.36 131.002 29H128.062L127.372 26.78H127.252C126.792 27.54 126.152 28.17 125.332 28.67C124.512 29.17 123.542 29.42 122.422 29.42C121.662 29.42 120.982 29.32 120.382 29.12C119.782 28.92 119.282 28.59 118.882 28.13C118.482 27.67 118.172 27.05 117.952 26.27C117.752 25.49 117.652 24.51 117.652 23.33V14H121.552ZM144.564 28.07C143.964 28.51 143.234 28.84 142.374 29.06C141.534 29.3 140.664 29.42 139.764 29.42C138.564 29.42 137.544 29.23 136.704 28.85C135.884 28.47 135.214 27.94 134.694 27.26C134.174 26.56 133.794 25.72 133.554 24.74C133.334 23.76 133.224 22.68 133.224 21.5C133.224 18.96 133.794 17.01 134.934 15.65C136.074 14.27 137.734 13.58 139.914 13.58C141.014 13.58 141.894 13.67 142.554 13.85C143.234 14.03 143.844 14.26 144.384 14.54L143.454 17.72C142.994 17.5 142.534 17.33 142.074 17.21C141.634 17.09 141.124 17.03 140.544 17.03C139.464 17.03 138.644 17.39 138.084 18.11C137.524 18.81 137.244 19.94 137.244 21.5C137.244 22.14 137.314 22.73 137.454 23.27C137.594 23.81 137.804 24.28 138.084 24.68C138.364 25.08 138.724 25.4 139.164 25.64C139.624 25.86 140.154 25.97 140.754 25.97C141.414 25.97 141.974 25.89 142.434 25.73C142.894 25.55 143.304 25.34 143.664 25.1L144.564 28.07ZM145.363 14H147.433V11.18L151.333 10.07V14H154.993V17.3H151.333V23.06C151.333 24.1 151.433 24.85 151.633 25.31C151.853 25.75 152.253 25.97 152.833 25.97C153.233 25.97 153.573 25.93 153.853 25.85C154.153 25.77 154.483 25.65 154.843 25.49L155.533 28.49C154.993 28.75 154.363 28.97 153.643 29.15C152.923 29.33 152.193 29.42 151.453 29.42C150.073 29.42 149.053 29.07 148.393 28.37C147.753 27.65 147.433 26.48 147.433 24.86V17.3H145.363V14ZM178.899 28.13C178.259 28.59 177.439 28.92 176.439 29.12C175.459 29.32 174.449 29.42 173.409 29.42C172.149 29.42 170.949 29.23 169.809 28.85C168.689 28.45 167.699 27.82 166.839 26.96C165.979 26.08 165.289 24.95 164.769 23.57C164.269 22.17 164.019 20.48 164.019 18.5C164.019 16.44 164.299 14.72 164.859 13.34C165.439 11.94 166.179 10.82 167.079 9.98C167.999 9.12 169.019 8.51 170.139 8.15C171.259 7.77 172.379 7.58 173.499 7.58C174.699 7.58 175.709 7.66 176.529 7.82C177.369 7.98 178.059 8.17 178.599 8.39L177.789 11.87C177.329 11.65 176.779 11.49 176.139 11.39C175.519 11.29 174.759 11.24 173.859 11.24C172.199 11.24 170.859 11.83 169.839 13.01C168.839 14.19 168.339 16.02 168.339 18.5C168.339 19.58 168.459 20.57 168.699 21.47C168.939 22.35 169.299 23.11 169.779 23.75C170.279 24.37 170.889 24.86 171.609 25.22C172.349 25.56 173.199 25.73 174.159 25.73C175.059 25.73 175.819 25.64 176.439 25.46C177.059 25.28 177.599 25.05 178.059 24.77L178.899 28.13ZM192.263 27.71C191.663 28.19 190.843 28.6 189.803 28.94C188.783 29.26 187.693 29.42 186.533 29.42C184.113 29.42 182.343 28.72 181.223 27.32C180.103 25.9 179.543 23.96 179.543 21.5C179.543 18.86 180.173 16.88 181.433 15.56C182.693 14.24 184.463 13.58 186.743 13.58C187.503 13.58 188.243 13.68 188.963 13.88C189.683 14.08 190.323 14.41 190.883 14.87C191.443 15.33 191.893 15.95 192.233 16.73C192.573 17.51 192.743 18.48 192.743 19.64C192.743 20.06 192.713 20.51 192.653 20.99C192.613 21.47 192.543 21.97 192.443 22.49H183.443C183.503 23.75 183.823 24.7 184.403 25.34C185.003 25.98 185.963 26.3 187.283 26.3C188.103 26.3 188.833 26.18 189.473 25.94C190.133 25.68 190.633 25.42 190.973 25.16L192.263 27.71ZM186.683 16.7C185.663 16.7 184.903 17.01 184.403 17.63C183.923 18.23 183.633 19.04 183.533 20.06H189.113C189.193 18.98 189.023 18.15 188.603 17.57C188.203 16.99 187.563 16.7 186.683 16.7ZM204.677 29V20.48C204.677 19.26 204.497 18.38 204.137 17.84C203.797 17.3 203.207 17.03 202.367 17.03C201.627 17.03 200.997 17.25 200.477 17.69C199.977 18.11 199.617 18.64 199.397 19.28V29H195.497V14H198.587L199.037 15.98H199.157C199.617 15.34 200.227 14.78 200.987 14.3C201.747 13.82 202.727 13.58 203.927 13.58C204.667 13.58 205.327 13.68 205.907 13.88C206.487 14.08 206.977 14.41 207.377 14.87C207.777 15.33 208.077 15.96 208.277 16.76C208.477 17.54 208.577 18.51 208.577 19.67V29H204.677ZM210.285 14H212.355V11.18L216.255 10.07V14H219.915V17.3H216.255V23.06C216.255 24.1 216.355 24.85 216.555 25.31C216.775 25.75 217.175 25.97 217.755 25.97C218.155 25.97 218.495 25.93 218.775 25.85C219.075 25.77 219.405 25.65 219.765 25.49L220.455 28.49C219.915 28.75 219.285 28.97 218.565 29.15C217.845 29.33 217.115 29.42 216.375 29.42C214.995 29.42 213.975 29.07 213.315 28.37C212.675 27.65 212.355 26.48 212.355 24.86V17.3H210.285V14ZM230.584 17.66C229.964 17.44 229.404 17.33 228.904 17.33C228.204 17.33 227.614 17.52 227.134 17.9C226.674 18.26 226.364 18.73 226.204 19.31V29H222.304V14H225.334L225.784 15.98H225.904C226.244 15.24 226.704 14.67 227.284 14.27C227.864 13.87 228.544 13.67 229.324 13.67C229.844 13.67 230.434 13.78 231.094 14L230.584 17.66ZM232.731 14.87C233.531 14.51 234.481 14.23 235.581 14.03C236.681 13.81 237.831 13.7 239.031 13.7C240.071 13.7 240.941 13.83 241.641 14.09C242.341 14.33 242.891 14.68 243.291 15.14C243.711 15.6 244.001 16.15 244.161 16.79C244.341 17.43 244.431 18.15 244.431 18.95C244.431 19.83 244.401 20.72 244.341 21.62C244.281 22.5 244.241 23.37 244.221 24.23C244.221 25.09 244.251 25.93 244.311 26.75C244.371 27.55 244.521 28.31 244.761 29.03H241.581L240.951 26.96H240.801C240.401 27.58 239.841 28.12 239.121 28.58C238.421 29.02 237.511 29.24 236.391 29.24C235.691 29.24 235.061 29.14 234.501 28.94C233.941 28.72 233.461 28.42 233.061 28.04C232.661 27.64 232.351 27.18 232.131 26.66C231.911 26.12 231.801 25.52 231.801 24.86C231.801 23.94 232.001 23.17 232.401 22.55C232.821 21.91 233.411 21.4 234.171 21.02C234.951 20.62 235.871 20.35 236.931 20.21C238.011 20.05 239.211 20 240.531 20.06C240.671 18.94 240.591 18.14 240.291 17.66C239.991 17.16 239.321 16.91 238.281 16.91C237.501 16.91 236.671 16.99 235.791 17.15C234.931 17.31 234.221 17.52 233.661 17.78L232.731 14.87ZM237.681 26.03C238.461 26.03 239.081 25.86 239.541 25.52C240.001 25.16 240.341 24.78 240.561 24.38V22.43C239.941 22.37 239.341 22.36 238.761 22.4C238.201 22.44 237.701 22.53 237.261 22.67C236.821 22.81 236.471 23.01 236.211 23.27C235.951 23.53 235.821 23.86 235.821 24.26C235.821 24.82 235.981 25.26 236.301 25.58C236.641 25.88 237.101 26.03 237.681 26.03ZM251.724 23.96C251.724 24.66 251.814 25.17 251.994 25.49C252.174 25.81 252.464 25.97 252.864 25.97C253.104 25.97 253.334 25.95 253.554 25.91C253.794 25.87 254.084 25.78 254.424 25.64L254.844 28.7C254.524 28.86 254.034 29.02 253.374 29.18C252.714 29.34 252.034 29.42 251.334 29.42C250.194 29.42 249.324 29.16 248.724 28.64C248.124 28.1 247.824 27.22 247.824 26V8H251.724V23.96Z" fill="#2C1A4D"/>
    <g clip-path="url(#clip0_267_6638)">
        <path d="M146.311 45.08L149.036 41.363L148.485 40.9377L145.752 44.6311L146.311 45.08Z" fill="#FF615A"/>
        <path d="M155.674 40.9141L152.926 44.6704L153.501 45.0799L156.225 41.3314L155.674 40.9141Z" fill="#482890"/>
        <path d="M163.313 45.08L163.809 44.6863L158.565 38.0398L158.061 38.4335L163.313 45.08Z" fill="#482890"/>
        <path d="M158.352 45.08L160.541 42.3317L160.045 41.9143L157.863 44.6863L158.352 45.08Z" fill="#FF615A"/>
        <path d="M161.635 40.9535L163.611 38.4335L163.099 38.0398L161.154 40.5204L161.635 40.9535Z" fill="#FF615A"/>
        <path d="M146.554 35C144.948 35 143.648 36.2994 143.648 37.8901C143.648 39.4966 144.948 40.8038 146.554 40.8038C148.137 40.8038 149.444 39.4808 149.444 37.8901C149.444 36.2994 148.129 35 146.554 35ZM146.554 40.166C145.326 40.166 144.31 39.1265 144.31 37.8665C144.31 36.6222 145.294 35.63 146.554 35.63C147.767 35.63 148.783 36.6459 148.783 37.8665C148.783 39.1265 147.783 40.166 146.554 40.166Z" fill="#482890"/>
        <path d="M153.767 35C152.161 35 150.846 36.2994 150.846 37.8901C150.846 39.4966 152.153 40.8038 153.767 40.8038C155.35 40.8038 156.657 39.4808 156.657 37.8901C156.657 36.3072 155.35 35 153.767 35ZM153.767 40.166C152.539 40.166 151.515 39.1265 151.515 37.8822C151.515 36.638 152.515 35.63 153.767 35.63C154.996 35.63 156.012 36.6616 156.012 37.8901C156.012 39.1186 154.972 40.166 153.767 40.166Z" fill="#FF615A"/>
    </g>
    <path d="M60.035 36.9924C60.2769 36.5712 60.6353 36.2218 61.1102 35.944C61.594 35.6573 62.154 35.514 62.7901 35.514C63.4442 35.514 64.0356 35.6708 64.5642 35.9844C65.1018 36.298 65.5229 36.7415 65.8276 37.3149C66.1322 37.8794 66.2845 38.5379 66.2845 39.2906C66.2845 40.0343 66.1322 40.6973 65.8276 41.2797C65.5229 41.8621 65.1018 42.3146 64.5642 42.6371C64.0356 42.9597 63.4442 43.121 62.7901 43.121C62.1629 43.121 61.6074 42.9821 61.1236 42.7043C60.6487 42.4176 60.2858 42.0637 60.035 41.6426V46.4944H58.8119V35.6349H60.035V36.9924ZM65.0346 39.2906C65.0346 38.7351 64.9226 38.2512 64.6986 37.8391C64.4746 37.4269 64.17 37.1133 63.7847 36.8983C63.4084 36.6832 62.9917 36.5757 62.5348 36.5757C62.0868 36.5757 61.6702 36.6877 61.2849 36.9117C60.9086 37.1268 60.6039 37.4448 60.371 37.866C60.147 38.2781 60.035 38.7575 60.035 39.304C60.035 39.8595 60.147 40.3479 60.371 40.769C60.6039 41.1811 60.9086 41.4992 61.2849 41.7232C61.6702 41.9382 62.0868 42.0458 62.5348 42.0458C62.9917 42.0458 63.4084 41.9382 63.7847 41.7232C64.17 41.4992 64.4746 41.1811 64.6986 40.769C64.9226 40.3479 65.0346 39.8551 65.0346 39.2906ZM71.1065 43.121C70.4166 43.121 69.7894 42.9642 69.2249 42.6506C68.6694 42.337 68.2304 41.8934 67.9078 41.32C67.5942 40.7376 67.4374 40.0656 67.4374 39.304C67.4374 38.5514 67.5987 37.8884 67.9213 37.3149C68.2528 36.7325 68.7008 36.289 69.2652 35.9844C69.8297 35.6708 70.4614 35.514 71.1603 35.514C71.8591 35.514 72.4908 35.6708 73.0553 35.9844C73.6198 36.289 74.0633 36.728 74.3858 37.3015C74.7174 37.8749 74.8831 38.5424 74.8831 39.304C74.8831 40.0656 74.7129 40.7376 74.3724 41.32C74.0409 41.8934 73.5884 42.337 73.015 42.6506C72.4415 42.9642 71.8054 43.121 71.1065 43.121ZM71.1065 42.0458C71.5455 42.0458 71.9577 41.9427 72.343 41.7366C72.7283 41.5306 73.0374 41.2215 73.2703 40.8093C73.5123 40.3971 73.6332 39.8954 73.6332 39.304C73.6332 38.7127 73.5167 38.2109 73.2838 37.7988C73.0508 37.3866 72.7462 37.082 72.3699 36.8848C71.9935 36.6788 71.5859 36.5757 71.1468 36.5757C70.6988 36.5757 70.2867 36.6788 69.9104 36.8848C69.543 37.082 69.2473 37.3866 69.0233 37.7988C68.7993 38.2109 68.6873 38.7127 68.6873 39.304C68.6873 39.9043 68.7948 40.4106 69.0099 40.8227C69.2339 41.2349 69.5296 41.544 69.8969 41.7501C70.2643 41.9472 70.6675 42.0458 71.1065 42.0458ZM86.3023 35.6349L84.0041 43H82.7408L80.9667 37.1536L79.1926 43H77.9293L75.6176 35.6349H76.8675L78.5609 41.8173L80.3888 35.6349H81.6387L83.4262 41.8307L85.0927 35.6349H86.3023ZM94.2361 39.0352C94.2361 39.2682 94.2226 39.5146 94.1958 39.7744H88.3091C88.3539 40.5002 88.6003 41.0691 89.0483 41.4813C89.5052 41.8845 90.0563 42.0861 90.7014 42.0861C91.23 42.0861 91.6691 41.9651 92.0185 41.7232C92.3769 41.4723 92.6278 41.1408 92.7711 40.7287H94.0882C93.8911 41.4365 93.4969 42.0144 92.9055 42.4624C92.3142 42.9014 91.5795 43.121 90.7014 43.121C90.0025 43.121 89.3753 42.9642 88.8198 42.6506C88.2732 42.337 87.8432 41.8934 87.5296 41.32C87.216 40.7376 87.0592 40.0656 87.0592 39.304C87.0592 38.5424 87.2115 37.8749 87.5161 37.3015C87.8208 36.728 88.2464 36.289 88.7929 35.9844C89.3484 35.6708 89.9846 35.514 90.7014 35.514C91.4003 35.514 92.0185 35.6663 92.5561 35.9709C93.0937 36.2756 93.5058 36.6967 93.7926 37.2343C94.0882 37.7629 94.2361 38.3632 94.2361 39.0352ZM92.9727 38.7799C92.9727 38.314 92.8697 37.9152 92.6636 37.5837C92.4575 37.2432 92.1753 36.9879 91.8169 36.8176C91.4675 36.6384 91.0777 36.5488 90.6476 36.5488C90.0294 36.5488 89.5007 36.746 89.0617 37.1402C88.6316 37.5344 88.3852 38.081 88.3225 38.7799H92.9727ZM97.0735 36.8311C97.2885 36.41 97.5931 36.0829 97.9874 35.85C98.3906 35.617 98.8789 35.5005 99.4523 35.5005V36.7639H99.1298C97.7589 36.7639 97.0735 37.5076 97.0735 38.9949V43H95.8504V35.6349H97.0735V36.8311ZM107.584 39.0352C107.584 39.2682 107.571 39.5146 107.544 39.7744H101.657C101.702 40.5002 101.948 41.0691 102.396 41.4813C102.853 41.8845 103.404 42.0861 104.049 42.0861C104.578 42.0861 105.017 41.9651 105.367 41.7232C105.725 41.4723 105.976 41.1408 106.119 40.7287H107.436C107.239 41.4365 106.845 42.0144 106.254 42.4624C105.662 42.9014 104.927 43.121 104.049 43.121C103.351 43.121 102.723 42.9642 102.168 42.6506C101.621 42.337 101.191 41.8934 100.878 41.32C100.564 40.7376 100.407 40.0656 100.407 39.304C100.407 38.5424 100.56 37.8749 100.864 37.3015C101.169 36.728 101.594 36.289 102.141 35.9844C102.696 35.6708 103.333 35.514 104.049 35.514C104.748 35.514 105.367 35.6663 105.904 35.9709C106.442 36.2756 106.854 36.6967 107.141 37.2343C107.436 37.7629 107.584 38.3632 107.584 39.0352ZM106.321 38.7799C106.321 38.314 106.218 37.9152 106.012 37.5837C105.806 37.2432 105.523 36.9879 105.165 36.8176C104.815 36.6384 104.426 36.5488 103.996 36.5488C103.377 36.5488 102.849 36.746 102.41 37.1402C101.98 37.5344 101.733 38.081 101.671 38.7799H106.321ZM108.742 39.2906C108.742 38.5379 108.894 37.8794 109.198 37.3149C109.503 36.7415 109.92 36.298 110.448 35.9844C110.986 35.6708 111.586 35.514 112.249 35.514C112.823 35.514 113.356 35.6484 113.849 35.9172C114.341 36.177 114.718 36.522 114.978 36.952V33.0545H116.214V43H114.978V41.6157C114.736 42.0547 114.377 42.4176 113.902 42.7043C113.428 42.9821 112.872 43.121 112.236 43.121C111.582 43.121 110.986 42.9597 110.448 42.6371C109.92 42.3146 109.503 41.8621 109.198 41.2797C108.894 40.6973 108.742 40.0343 108.742 39.2906ZM114.978 39.304C114.978 38.7485 114.866 38.2647 114.642 37.8525C114.418 37.4404 114.113 37.1268 113.728 36.9117C113.351 36.6877 112.935 36.5757 112.478 36.5757C112.021 36.5757 111.604 36.6832 111.228 36.8983C110.852 37.1133 110.551 37.4269 110.327 37.8391C110.103 38.2512 109.991 38.7351 109.991 39.2906C109.991 39.8551 110.103 40.3479 110.327 40.769C110.551 41.1811 110.852 41.4992 111.228 41.7232C111.604 41.9382 112.021 42.0458 112.478 42.0458C112.935 42.0458 113.351 41.9382 113.728 41.7232C114.113 41.4992 114.418 41.1811 114.642 40.769C114.866 40.3479 114.978 39.8595 114.978 39.304ZM123.087 37.0058C123.338 36.5668 123.705 36.2084 124.189 35.9306C124.673 35.6528 125.224 35.514 125.842 35.514C126.505 35.514 127.101 35.6708 127.63 35.9844C128.158 36.298 128.575 36.7415 128.88 37.3149C129.184 37.8794 129.337 38.5379 129.337 39.2906C129.337 40.0343 129.184 40.6973 128.88 41.2797C128.575 41.8621 128.154 42.3146 127.616 42.6371C127.088 42.9597 126.496 43.121 125.842 43.121C125.206 43.121 124.646 42.9821 124.162 42.7043C123.687 42.4266 123.329 42.0726 123.087 41.6426V43H121.864V33.0545H123.087V37.0058ZM128.087 39.2906C128.087 38.7351 127.975 38.2512 127.751 37.8391C127.527 37.4269 127.222 37.1133 126.837 36.8983C126.46 36.6832 126.044 36.5757 125.587 36.5757C125.139 36.5757 124.722 36.6877 124.337 36.9117C123.961 37.1268 123.656 37.4448 123.423 37.866C123.199 38.2781 123.087 38.7575 123.087 39.304C123.087 39.8595 123.199 40.3479 123.423 40.769C123.656 41.1811 123.961 41.4992 124.337 41.7232C124.722 41.9382 125.139 42.0458 125.587 42.0458C126.044 42.0458 126.46 41.9382 126.837 41.7232C127.222 41.4992 127.527 41.1811 127.751 40.769C127.975 40.3479 128.087 39.8551 128.087 39.2906ZM137.29 35.6349L132.855 46.4675H131.592L133.043 42.9194L130.073 35.6349H131.43L133.742 41.6022L136.027 35.6349H137.29Z" fill="#2C1A4D"/>
    <path fill-rule="evenodd" clip-rule="evenodd" d="M40.4304 21.6141C40.4304 20.9288 41.021 20.3414 41.7101 20.3414C42.3991 20.3414 42.9897 20.9288 42.9897 21.6141V37.1139C42.9897 37.7991 42.4312 38.3865 41.7101 38.3865C40.9889 38.3865 40.4304 37.7991 40.4304 37.1139V31.5678L36.264 33.9492V40.9638C36.264 41.4214 36.035 41.8448 35.6069 42.0725L28.8812 45.9566C28.2585 46.2821 27.471 46.0863 27.1413 45.4671C26.7796 44.8797 26.9765 44.0965 27.6015 43.7368L33.7046 40.2443V33.2298C33.7046 32.7084 33.9999 32.2827 34.46 32.055L40.4304 28.6286V21.6141ZM15.3975 43.7368C16.0202 44.0965 16.2171 44.8797 15.8577 45.4671C15.5303 46.0863 14.7428 46.2821 14.1178 45.9566L7.45843 42.1067C7.39204 42.1067 7.35999 42.0748 7.29361 42.0406L0.631916 38.1907C0.0412914 37.8652 -0.187633 37.082 0.171778 36.4604C0.533478 35.8412 1.32098 35.6454 1.9116 36.0028L6.73503 38.7758V33.9788L0.631916 30.4545C0.206117 30.2268 -0.0250966 29.7373 0.00924204 29.2797V21.6118C0.00924204 20.9265 0.567817 20.3391 1.28893 20.3391C2.01004 20.3391 2.56861 20.9265 2.56861 21.6118V28.6263L8.57329 32.0846C8.99909 32.2804 9.2944 32.738 9.2944 33.2275V40.242L15.3975 43.7345V43.7368ZM20.221 33.2298C20.221 32.5126 20.7795 31.9571 21.5006 31.9571C22.2217 31.9571 22.7803 32.5126 22.7803 33.2298V48.6954C22.7803 49.4126 22.2217 50 21.5006 50C20.7795 50 20.221 49.4126 20.221 48.6954V41.7128L14.2163 38.2545C13.7905 38.0587 13.4608 37.6011 13.4608 37.1116V30.0971L7.39204 26.6046C6.76937 26.2449 6.5725 25.4617 6.89986 24.8424C7.26156 24.255 8.04906 24.0274 8.67173 24.3848L15.3975 28.2689C15.8233 28.4965 16.0545 28.9223 16.0545 29.3457V36.3603L20.221 38.7758V33.2298ZM0.631916 14.9888C0.0412914 14.6291 -0.187633 13.8459 0.171778 13.2586C0.533478 12.6393 1.28664 12.4435 1.9116 12.7691L8.01472 16.2934L14.1178 12.7691C14.5116 12.5733 14.9717 12.5414 15.3975 12.7691L21.5006 16.2934L27.6038 12.7691C28.1944 12.4435 28.9819 12.6393 29.3436 13.2586C29.7053 13.8459 29.5084 14.6291 28.8834 14.9888L22.1576 18.8388C21.6975 19.1006 21.1733 19.0664 20.7795 18.8069L14.7748 15.3486L10.5741 17.7641L15.3975 20.5053C16.0202 20.865 16.2171 21.6482 15.8577 22.2675C15.5303 22.8549 14.7428 23.0825 14.1178 22.7251L7.45843 18.9071C7.39204 18.8752 7.35999 18.841 7.32794 18.8092L0.631916 14.9888ZM14.1178 5.03738L20.8436 1.1556C21.4663 0.830027 22.2538 1.02582 22.6155 1.64509C22.9772 2.23248 22.746 3.01566 22.1554 3.37538L17.3319 6.14841L21.4983 8.52984L27.6015 5.03738C28.0273 4.77556 28.5538 4.80971 28.9475 5.06925L35.6069 8.91916C36.2296 9.24473 36.4265 10.0279 36.0991 10.6495C35.7374 11.2687 34.9499 11.4645 34.3273 11.1071L28.2241 7.6146L22.1554 11.1071C21.7616 11.3347 21.2694 11.3689 20.8436 11.1071L14.7748 7.6146L8.67173 11.1071C8.04906 11.4668 7.26156 11.271 6.89986 10.6495C6.5725 10.0302 6.76937 9.27888 7.39204 8.91916L14.1178 5.0351V5.03738ZM41.0874 12.7713C41.678 12.4458 42.4655 12.6416 42.8272 13.2608C43.1889 13.8482 42.9577 14.6314 42.3671 14.9911L36.264 18.4836V25.4981C36.264 25.9216 36.035 26.3473 35.6069 26.6069L29.5038 30.0993V37.1139C29.5038 37.7991 28.9452 38.3865 28.2241 38.3865C27.503 38.3865 26.9445 37.7991 26.9445 37.1139V29.348C26.9445 28.8904 27.2077 28.4669 27.6015 28.2711L33.7046 24.7468V19.9498L28.8812 22.7228C28.2585 23.0825 27.471 22.8526 27.1413 22.2652C26.7796 21.6459 26.9765 20.8627 27.6015 20.503L34.2288 16.7169C34.2952 16.6508 34.3593 16.619 34.4577 16.5871L41.0851 12.7691L41.0874 12.7713Z" fill="url(#paint0_linear_267_6638)"/>
    <defs>
        <linearGradient id="paint0_linear_267_6638" x1="1.9757" y1="12.0269" x2="41.7117" y2="39.7429" gradientUnits="userSpaceOnUse">
            <stop stop-color="#6F42C1"/>
            <stop offset="0.34" stop-color="#693EB7"/>
            <stop offset="0.92" stop-color="#5B369E"/>
            <stop offset="1" stop-color="#59359A"/>
        </linearGradient>
        <clipPath id="clip0_267_6638">
            <rect width="20.1599" height="10.0799" fill="white" transform="translate(143.648 35)"/>
        </clipPath>
    </defs>
</svg>
